<?xml version="1.0" standalone="no"?>
<!DOCTYPE svg PUBLIC "-//W3C//DTD SVG 20010904//EN"
 "http://www.w3.org/TR/2001/REC-SVG-20010904/DTD/svg10.dtd">
<svg version="1.0" xmlns="http://www.w3.org/2000/svg"
 width="554.000000pt" height="554.000000pt" viewBox="0 0 554.000000 554.000000"
 preserveAspectRatio="xMidYMid meet">

<g transform="translate(0.000000,554.000000) scale(0.100000,-0.100000)"
fill="#000000" stroke="none">
<path d="M0 2770 l0 -2770 2770 0 2770 0 0 2770 0 2770 -2770 0 -2770 0 0
-2770z m1970 1255 c94 -20 204 -63 292 -115 151 -90 316 -284 368 -434 l11
-31 42 85 c54 107 90 157 175 243 121 123 280 212 445 248 77 17 115 20 232
16 139 -5 196 -15 305 -56 135 -50 296 -174 391 -300 138 -181 208 -433 180
-648 -50 -381 -292 -668 -657 -779 -80 -25 -105 -28 -244 -28 -132 -1 -167 2
-239 22 -104 28 -240 95 -320 156 -116 90 -234 240 -282 358 -8 22 -19 38 -24
36 -4 -2 -28 -41 -52 -88 -235 -461 -822 -628 -1275 -364 -112 66 -257 211
-317 317 -95 169 -125 280 -125 472 0 195 44 343 149 500 133 200 336 338 570
390 84 18 288 18 375 0z m-275 -1895 c26 -10 43 -35 31 -47 -3 -3 -14 1 -24
10 -39 35 -123 9 -92 -28 7 -8 21 -15 32 -15 40 0 87 -28 94 -56 9 -37 -32
-74 -82 -74 -37 0 -84 36 -84 65 0 22 27 19 33 -5 6 -24 51 -36 83 -21 39 17
27 44 -26 59 -66 19 -75 26 -78 60 -5 50 50 76 113 52z m685 -73 c0 -91 8
-107 51 -107 47 0 59 22 59 111 0 64 3 79 15 79 12 0 15 -14 15 -62 0 -79 -15
-135 -40 -148 -33 -18 -79 -12 -105 15 -23 22 -25 32 -25 110 0 69 3 85 15 85
12 0 15 -16 15 -83z m370 68 c0 -8 -6 -15 -13 -15 -8 0 -14 7 -14 15 0 8 6 15
14 15 7 0 13 -7 13 -15z m640 0 c0 -8 -7 -15 -15 -15 -8 0 -15 7 -15 15 0 8 7
15 15 15 8 0 15 -7 15 -15z m70 -26 c0 -10 5 -19 10 -19 6 0 10 -7 10 -15 0
-8 -4 -15 -10 -15 -17 0 -12 -90 7 -108 16 -16 15 -17 -1 -20 -37 -8 -46 5
-46 68 0 33 -4 60 -10 60 -5 0 -10 7 -10 15 0 8 5 15 10 15 6 0 10 8 10 18 0
10 3 22 6 25 11 10 24 -3 24 -24z m-1660 -68 c0 -61 7 -81 29 -81 29 0 41 22
41 77 0 40 4 53 15 53 12 0 15 -16 15 -80 0 -44 -4 -80 -9 -80 -5 0 -11 6 -14
13 -3 9 -7 9 -20 -1 -23 -20 -60 -11 -74 18 -19 37 -17 130 2 130 11 0 15 -12
15 -49z m259 23 c12 -15 21 -35 21 -45 0 -16 -8 -19 -60 -19 -33 0 -60 -4 -60
-8 0 -28 64 -44 87 -21 6 6 17 9 24 7 23 -8 -28 -48 -61 -48 -43 0 -70 31 -70
80 0 75 76 109 119 54z m171 7 c0 -10 -20 -37 -45 -60 -25 -23 -45 -44 -45
-46 0 -3 22 -5 48 -5 37 0 49 -4 49 -15 0 -12 -15 -15 -74 -15 -65 0 -73 2
-73 19 0 10 20 37 45 59 25 22 45 43 45 46 0 3 -18 6 -40 6 -29 0 -40 4 -40
15 0 12 14 15 65 15 57 0 65 -2 65 -19z m447 -11 c19 -37 17 -130 -2 -130 -12
0 -15 13 -15 59 0 62 -12 78 -51 66 -16 -5 -19 -17 -19 -66 0 -46 -3 -59 -15
-59 -12 0 -15 15 -15 78 l0 78 52 -1 c46 0 54 -3 65 -25z m73 -50 c0 -47 -4
-80 -10 -80 -6 0 -10 33 -10 80 0 47 4 80 10 80 6 0 10 -33 10 -80z m75 25
c11 -30 22 -55 25 -55 4 0 15 25 25 55 11 31 25 55 33 55 7 0 11 -6 9 -12 -3
-7 -16 -43 -28 -80 -16 -46 -28 -68 -39 -68 -11 0 -23 22 -39 68 -12 37 -25
73 -28 80 -2 6 2 12 10 12 8 0 22 -23 32 -55z m228 38 c8 -10 19 -30 22 -45
l7 -28 -61 0 c-59 0 -61 -1 -51 -20 12 -22 59 -27 77 -9 22 22 34 4 13 -19
-47 -50 -120 -15 -120 58 0 48 27 80 68 80 16 0 36 -8 45 -17z m77 5 c0 -9 3
-9 12 0 17 17 48 15 48 -2 0 -8 -10 -16 -22 -18 -21 -3 -23 -9 -26 -65 -2 -47
-7 -63 -17 -63 -12 0 -15 17 -15 80 0 47 4 80 10 80 6 0 10 -5 10 -12z m171 2
c34 -19 21 -30 -27 -23 -37 5 -46 3 -42 -7 2 -8 20 -18 39 -23 42 -11 59 -24
59 -48 0 -44 -83 -65 -115 -29 -23 25 -12 37 19 21 26 -15 57 -12 63 6 2 6
-11 14 -29 18 -35 8 -68 31 -68 48 0 37 60 58 101 37z m89 -70 c0 -64 -3 -80
-15 -80 -12 0 -15 16 -15 80 0 64 3 80 15 80 12 0 15 -16 15 -80z m154 24 c20
-62 25 -61 50 9 10 26 22 47 27 47 14 0 12 -11 -22 -107 -35 -99 -44 -113 -70
-113 -25 0 -24 26 1 33 26 7 25 30 -5 111 -29 77 -29 76 -12 76 7 0 21 -25 31
-56z m-2186 -260 c22 -15 30 -44 13 -44 -5 0 -14 7 -21 15 -7 8 -27 15 -45 15
-18 0 -38 -7 -45 -15 -19 -23 3 -42 56 -50 56 -8 83 -42 66 -81 -15 -33 -52
-48 -96 -40 -34 7 -66 37 -66 63 0 21 27 15 33 -7 10 -39 107 -39 107 0 0 21
-21 34 -72 44 -86 19 -71 116 17 116 17 0 41 -7 53 -16z m214 -1 c10 -9 18
-30 18 -49 0 -42 -30 -64 -87 -64 l-43 0 0 -45 c0 -33 -4 -45 -15 -45 -12 0
-15 19 -15 110 l0 110 62 0 c43 0 67 -5 80 -17z m208 2 c0 -12 -13 -15 -60
-15 l-60 0 0 -30 0 -30 60 0 c47 0 60 -3 60 -15 0 -12 -13 -15 -60 -15 l-60 0
0 -35 0 -35 65 0 c51 0 65 -3 65 -15 0 -12 -16 -15 -80 -15 l-80 0 0 110 0
110 75 0 c60 0 75 -3 75 -15z m264 -6 c27 -21 34 -39 15 -39 -6 0 -17 7 -25
15 -28 27 -94 16 -94 -16 0 -12 11 -21 38 -28 20 -6 42 -11 49 -11 21 0 43
-31 43 -60 0 -78 -143 -78 -163 0 -7 28 11 25 35 -5 21 -27 56 -32 89 -15 36
20 17 48 -42 61 -75 17 -100 58 -59 99 26 26 80 26 114 -1z m446 -83 c0 -70
-4 -107 -12 -112 -6 -4 -14 -2 -16 4 -2 8 -8 8 -22 0 -14 -9 -25 -9 -44 0 -58
26 -61 119 -5 143 24 9 36 10 50 1 17 -11 19 -9 19 28 0 29 4 40 15 40 12 0
15 -18 15 -104z m684 83 c25 -19 35 -49 18 -49 -5 0 -17 9 -27 20 -18 20 -60
26 -81 12 -18 -12 -34 -49 -34 -79 0 -67 79 -98 120 -46 15 19 24 23 32 15 8
-8 3 -19 -20 -41 -66 -66 -163 -18 -162 81 1 88 89 138 154 87z m96 -19 c0
-39 1 -39 25 -28 19 8 31 8 50 0 23 -11 25 -17 25 -82 0 -40 -4 -70 -10 -70
-5 0 -10 21 -10 46 0 55 -14 84 -40 84 -26 0 -40 -29 -40 -84 0 -34 -4 -46
-15 -46 -12 0 -15 19 -15 110 0 91 3 110 15 110 11 0 15 -11 15 -40z m-1130 5
c0 -16 6 -25 15 -25 8 0 15 -7 15 -15 0 -8 -7 -15 -15 -15 -11 0 -15 -12 -15
-49 0 -34 4 -51 15 -55 22 -8 19 -26 -4 -26 -26 0 -31 9 -38 72 -3 29 -11 56
-17 60 -6 4 -3 14 9 28 11 12 19 24 18 26 -7 10 -2 24 7 24 6 0 10 -11 10 -25z
m766 -25 c8 0 14 -7 14 -15 0 -8 -7 -15 -15 -15 -11 0 -15 -12 -15 -50 0 -38
4 -50 15 -50 8 0 15 -7 15 -15 0 -8 -9 -15 -20 -15 -24 0 -40 35 -40 90 0 22
-5 40 -12 43 -10 4 -10 7 0 18 6 7 12 21 12 30 0 27 25 29 28 2 2 -12 10 -23
18 -23z m874 25 c0 -14 5 -25 10 -25 6 0 10 -7 10 -15 0 -8 -4 -15 -10 -15 -5
0 -10 -22 -10 -50 0 -27 5 -50 10 -50 6 0 10 -7 10 -16 0 -10 -7 -14 -22 -12
-21 3 -23 9 -26 66 -2 34 -7 62 -12 62 -6 0 -10 7 -10 15 0 8 5 15 10 15 6 0
10 8 10 18 0 10 3 22 7 25 13 14 23 6 23 -18z m-1560 -84 c0 -62 12 -78 51
-66 16 5 19 17 19 66 0 46 3 59 15 59 12 0 15 -16 15 -80 0 -44 -4 -80 -9 -80
-5 0 -11 6 -14 13 -3 9 -7 9 -20 -1 -23 -20 -60 -11 -74 18 -19 37 -17 130 2
130 12 0 15 -13 15 -59z m419 33 c12 -15 21 -35 21 -45 0 -16 -8 -19 -60 -19
-58 0 -60 -1 -50 -20 12 -22 59 -27 77 -9 22 22 34 4 13 -19 -47 -50 -120 -15
-120 58 0 75 76 109 119 54z m168 14 c18 -14 18 -151 1 -146 -8 3 -15 29 -18
64 -4 46 -9 60 -23 62 -32 6 -47 -17 -47 -74 0 -41 -4 -54 -15 -54 -12 0 -15
15 -15 78 l0 79 52 1 c29 0 58 -4 65 -10z m717 -10 c10 -14 16 -44 16 -78 l0
-55 -52 1 c-73 1 -76 2 -83 23 -10 32 5 49 55 61 35 8 47 16 43 26 -6 16 -63
20 -63 4 0 -5 -7 -10 -15 -10 -19 0 -19 9 2 32 23 26 78 24 97 -4z m76 10 c0
-9 3 -9 12 0 32 32 86 2 95 -52 10 -62 -52 -119 -92 -86 -13 11 -15 7 -15 -29
0 -30 -4 -41 -15 -41 -12 0 -15 19 -15 110 0 91 3 110 15 110 8 0 15 -5 15
-12z m339 -14 c12 -15 21 -35 21 -45 0 -16 -8 -19 -60 -19 -49 0 -58 -3 -54
-15 9 -22 52 -30 80 -15 32 18 39 9 14 -18 -24 -26 -66 -28 -98 -6 -18 12 -22
25 -22 64 0 39 4 52 22 64 34 24 73 20 97 -10z m81 16 c0 -6 8 -5 20 2 14 9
22 10 31 1 8 -8 4 -15 -18 -25 -25 -12 -28 -19 -31 -71 -2 -42 -7 -57 -17 -57
-12 0 -15 16 -15 73 0 41 3 77 7 80 10 10 23 8 23 -3z"/>
<path d="M3819 3926 c-1 -3 -2 -12 -3 -18 -1 -9 -27 -14 -88 -16 l-87 -3 11
-24 c7 -15 20 -25 32 -25 13 0 30 -14 44 -35 12 -19 29 -35 37 -35 8 0 30 -31
50 -71 20 -39 41 -69 48 -66 6 2 17 23 24 47 7 24 26 58 43 75 l29 30 -42 52
c-41 51 -96 100 -98 89z"/>
<path d="M1487 3788 c-14 -18 -30 -43 -36 -55 -9 -18 -20 -23 -50 -23 -35 0
-39 -3 -54 -40 -17 -44 -23 -47 -52 -24 -16 12 -17 17 -6 23 10 7 11 13 2 30
-9 16 -21 21 -49 21 -34 0 -41 -5 -85 -67 -36 -51 -47 -75 -45 -98 2 -19 8
-29 17 -27 7 1 19 -5 26 -15 12 -17 14 -16 20 9 4 15 4 31 1 37 -11 17 34 95
46 83 8 -8 7 -20 -2 -41 -17 -41 -7 -61 30 -61 43 0 39 -24 -10 -55 -44 -28
-98 -33 -106 -10 -4 8 -10 15 -16 15 -5 0 -7 -4 -3 -9 3 -6 -4 -25 -15 -43
-15 -25 -27 -33 -50 -34 -43 -2 -42 -1 -24 -29 20 -31 12 -55 -20 -55 -33 0
-43 -56 -14 -80 18 -14 18 -16 -22 -55 -38 -37 -40 -42 -40 -99 0 -48 5 -65
26 -93 l26 -34 67 7 c60 5 69 4 75 -12 4 -9 2 -22 -3 -27 -6 -6 -2 -25 11 -53
20 -39 20 -47 8 -97 l-13 -55 38 -61 c35 -56 41 -61 74 -61 34 0 37 3 59 55
12 31 22 65 22 76 0 12 10 35 22 52 13 19 21 43 20 62 -2 26 4 37 33 59 19 15
44 45 55 67 l20 39 -35 0 c-27 0 -42 7 -64 33 -28 30 -70 131 -60 141 16 17
49 -12 74 -65 16 -32 34 -59 41 -59 15 0 74 33 74 41 0 4 -9 9 -19 12 -22 5
-76 103 -62 112 17 10 37 -6 53 -45 13 -29 24 -39 44 -42 21 -2 30 -11 36 -33
13 -41 59 -135 67 -135 3 0 19 25 35 55 29 56 57 72 70 39 3 -9 6 -48 6 -87 0
-56 5 -78 20 -97 18 -23 20 -24 20 -5 0 12 -4 25 -9 30 -11 11 -18 91 -9 100
3 3 8 -6 12 -20 7 -27 17 -31 47 -15 24 13 24 48 2 90 -13 24 -15 34 -6 37 7
2 27 14 45 26 42 28 51 82 18 112 -24 22 -26 48 -5 65 13 10 19 10 35 -5 11
-10 20 -25 20 -34 0 -12 3 -12 12 -3 10 10 10 17 1 31 -17 27 3 89 30 93 26 4
85 98 61 98 -9 0 -14 3 -12 8 34 75 62 111 107 140 52 32 63 32 35 1 -10 -11
-13 -25 -9 -39 6 -19 10 -17 41 25 24 31 33 52 29 65 -6 19 -1 20 92 22 55 1
76 3 48 5 -27 3 -54 8 -60 13 -5 4 -56 11 -113 15 -56 4 -105 12 -108 16 -3 5
-61 9 -129 9 l-124 0 -21 30 -21 30 -134 0 -134 0 -24 -32z m-270 -474 c11
-18 13 -17 38 14 29 35 59 41 87 15 33 -30 22 -43 -36 -43 -49 0 -54 -2 -49
-20 4 -14 14 -20 34 -20 35 0 42 -11 23 -38 -11 -16 -26 -22 -54 -22 -21 0
-40 -5 -42 -10 -4 -14 -70 8 -81 27 -5 8 -28 13 -64 13 l-56 0 21 23 c11 12
25 34 31 50 14 37 60 55 78 31 7 -10 13 -28 13 -41 0 -13 5 -23 10 -23 19 0
22 28 6 58 -8 16 -12 33 -8 36 6 7 24 -11 49 -50z"/>
<path d="M3560 3814 c0 -3 5 -14 10 -25 8 -14 21 -19 50 -19 29 0 42 -5 50
-19 14 -27 13 -33 -8 -29 -11 2 -20 0 -20 -4 -5 -22 0 -28 21 -28 16 0 28 -9
35 -25 9 -20 19 -25 47 -25 19 0 35 2 35 5 0 18 -33 65 -45 65 -9 0 -25 20
-37 45 -18 37 -27 45 -49 45 -15 0 -31 5 -34 10 -6 10 -55 14 -55 4z"/>
<path d="M3453 3750 c-29 -17 -39 -18 -94 -8 -50 9 -67 8 -93 -4 -25 -12 -51
-13 -135 -6 -88 7 -107 6 -128 -8 -21 -13 -24 -21 -18 -50 4 -24 2 -34 -7 -34
-10 0 -10 -2 1 -9 7 -5 10 -14 6 -20 -10 -18 15 -42 36 -36 30 10 22 -8 -12
-28 -18 -10 -29 -20 -26 -23 6 -6 85 33 132 65 60 41 138 13 151 -55 3 -19 15
-46 26 -60 12 -15 18 -33 15 -46 -7 -25 14 -89 49 -152 32 -57 44 -55 15 3
-26 50 -26 51 -1 51 15 0 29 -17 52 -64 27 -55 43 -73 114 -125 45 -34 89 -61
98 -61 19 0 20 -9 6 -46 -15 -39 4 -93 47 -130 l35 -31 -17 -79 c-10 -43 -22
-100 -27 -126 -14 -64 -4 -112 26 -126 32 -14 36 -8 24 35 -9 32 -7 38 21 67
17 18 31 42 31 54 0 17 6 22 24 22 14 0 31 9 39 21 8 11 33 34 56 50 31 23 41
38 41 58 0 17 10 36 25 49 49 43 19 122 -46 122 -12 0 -23 8 -26 19 -3 11 -22
33 -43 50 -35 28 -46 31 -104 31 -36 0 -68 -4 -71 -10 -21 -35 -103 19 -90 59
7 22 -4 28 -21 11 -13 -13 -27 2 -43 49 -16 50 -16 51 42 51 48 0 55 -3 65
-25 6 -14 16 -25 22 -25 13 0 13 3 -2 34 -9 21 -8 29 5 44 10 10 17 33 17 50
0 20 5 32 13 32 7 0 21 16 30 35 13 27 23 35 44 36 25 1 24 2 -7 8 -22 4 -36
12 -38 24 -3 15 5 17 62 17 l66 0 -22 45 c-22 46 -35 54 -55 34 -20 -20 -67
-6 -81 24 -10 20 -20 27 -43 27 l-30 0 17 -28 c16 -27 15 -30 -1 -56 -16 -23
-20 -25 -27 -12 -5 9 -19 16 -32 16 -32 0 -52 40 -40 82 8 29 14 33 47 36 34
3 37 6 31 25 -9 31 -12 33 -33 20 -16 -10 -21 -8 -31 18 -15 35 -41 38 -87 9z"/>
<path d="M3980 3745 c0 -2 5 -16 12 -30 14 -30 53 -34 68 -6 18 34 11 41 -35
41 -25 0 -45 -2 -45 -5z"/>
<path d="M1040 3508 c0 -9 -3 -30 -6 -47 -6 -27 -4 -31 16 -31 23 0 23 -2 7
67 -5 20 -17 28 -17 11z"/>
<path d="M986 3484 c-9 -22 3 -32 14 -14 12 19 12 30 1 30 -5 0 -12 -7 -15
-16z"/>
<path d="M2165 3396 c-40 -17 -58 -41 -58 -76 0 -53 26 -70 171 -109 42 -12
55 -34 26 -45 -28 -11 -71 -6 -84 9 -8 10 -31 15 -67 15 -52 0 -54 -1 -47 -22
15 -48 66 -70 159 -70 116 0 170 34 163 105 -4 38 -49 72 -111 82 -23 4 -57
13 -76 21 -28 12 -31 16 -21 29 16 19 64 19 80 0 8 -10 31 -15 66 -15 30 0 54
2 54 5 0 21 -28 55 -56 69 -42 20 -156 21 -199 2z"/>
<path d="M2490 3400 c-5 -51 -3 -300 3 -301 9 -1 73 -1 92 0 11 1 15 13 15 46
l0 45 60 0 c106 0 170 43 170 114 0 35 -45 84 -83 91 -44 7 -257 11 -257 5z
m228 -99 c5 -31 -12 -41 -70 -41 l-48 0 0 35 0 36 58 -3 c51 -3 57 -5 60 -27z"/>
<path d="M2890 3405 c-1 0 -1 -67 -2 -150 l-1 -150 152 -3 151 -3 0 36 0 35
-95 0 -95 0 0 30 0 30 78 0 78 0 -2 28 c-1 27 -1 27 -77 30 -74 3 -77 4 -77
27 0 24 2 24 92 27 l92 3 0 30 0 29 -147 1 c-81 0 -147 0 -147 0z"/>
<path d="M2016 3384 c-3 -9 -6 -31 -6 -50 0 -24 -8 -43 -25 -59 l-24 -25 22 0
c14 0 29 11 40 29 14 24 15 34 5 62 -9 25 -9 34 0 37 14 4 16 22 3 22 -5 0
-12 -7 -15 -16z"/>
<path d="M3700 3180 c14 -4 36 -8 50 -8 23 -1 23 0 5 8 -11 5 -33 8 -50 8 -29
0 -29 0 -5 -8z"/>
<path d="M1960 2970 c0 -73 3 -90 15 -90 12 0 15 17 15 90 0 73 -3 90 -15 90
-12 0 -15 -17 -15 -90z"/>
<path d="M2820 3046 c0 -10 9 -16 21 -16 24 0 21 23 -4 28 -10 2 -17 -3 -17
-12z"/>
<path d="M3300 2970 c0 -73 3 -90 15 -90 12 0 15 17 15 90 0 73 -3 90 -15 90
-12 0 -15 -17 -15 -90z"/>
<path d="M2170 3031 c0 -11 -6 -21 -12 -24 -10 -3 -10 -7 -1 -18 6 -8 13 -35
15 -59 2 -38 7 -46 26 -48 12 -2 22 1 22 7 0 6 -4 11 -10 11 -15 0 -12 87 3
94 10 5 10 7 0 12 -7 3 -13 14 -13 25 0 10 -7 19 -15 19 -8 0 -15 -9 -15 -19z"/>
<path d="M2743 3033 c-3 -10 -11 -21 -17 -25 -8 -6 -7 -10 1 -16 6 -4 13 -30
15 -57 3 -46 5 -50 31 -53 15 -2 27 1 27 7 0 6 -4 11 -10 11 -15 0 -12 87 3
93 9 4 8 8 -3 16 -8 6 -15 16 -15 22 0 20 -25 22 -32 2z"/>
<path d="M2020 2943 c0 -49 3 -63 15 -63 11 0 15 12 15 49 0 31 5 51 13 54 27
9 37 -6 37 -54 0 -42 3 -49 20 -49 17 0 20 7 20 46 0 71 -12 84 -70 82 l-50
-2 0 -63z"/>
<path d="M2249 2994 c-7 -9 -13 -31 -13 -49 0 -18 6 -40 13 -49 22 -27 101
-19 101 10 0 17 -22 18 -37 3 -15 -15 -43 -4 -43 16 0 11 11 15 45 15 49 0 56
10 29 48 -18 27 -75 30 -95 6z m71 -25 c0 -5 -11 -9 -25 -9 -26 0 -34 15 -12
23 16 5 37 -3 37 -14z"/>
<path d="M2380 2943 c0 -49 3 -63 15 -63 11 0 15 12 15 46 0 37 4 47 20 51 33
9 23 29 -15 29 l-35 0 0 -63z"/>
<path d="M2470 2943 c0 -49 3 -63 15 -63 11 0 15 12 15 49 0 35 4 51 16 55 26
10 34 -3 34 -55 0 -40 3 -49 18 -49 15 0 18 8 17 53 -1 70 -7 77 -66 75 l-49
-2 0 -63z"/>
<path d="M2614 2993 c-17 -17 -17 -18 0 -21 9 -2 23 2 31 8 15 12 35 6 35 -11
0 -5 -9 -9 -19 -9 -32 0 -65 -33 -57 -58 6 -19 14 -21 60 -20 l53 1 -3 53 c-1
29 -5 58 -9 64 -10 16 -72 12 -91 -7z m66 -68 c0 -21 -28 -31 -43 -16 -9 9 -8
14 3 21 22 14 40 12 40 -5z"/>
<path d="M2820 2945 c0 -57 2 -65 19 -65 17 0 19 7 18 65 -1 56 -3 65 -19 65
-16 0 -18 -9 -18 -65z"/>
<path d="M2897 2992 c-22 -25 -22 -81 1 -98 25 -19 76 -17 95 4 22 25 21 75
-1 95 -25 22 -75 21 -95 -1z m68 -18 c19 -20 16 -53 -7 -67 -34 -22 -66 41
-36 71 16 16 23 15 43 -4z"/>
<path d="M3030 2943 c0 -49 3 -63 15 -63 11 0 15 12 15 49 0 35 4 51 16 55 26
10 34 -3 34 -55 0 -40 3 -49 18 -49 15 0 18 8 17 53 0 28 -4 57 -8 64 -4 7
-28 11 -57 11 l-50 -1 0 -64z"/>
<path d="M3170 2990 c-9 -17 -8 -20 9 -20 11 0 23 5 26 10 9 15 35 12 35 -4 0
-7 -12 -16 -27 -19 -45 -10 -56 -22 -49 -51 6 -23 10 -25 59 -24 l54 1 -4 51
c-6 74 -8 76 -52 76 -30 0 -43 -5 -51 -20z m68 -67 c-4 -22 -48 -31 -48 -10 0
19 10 27 32 27 13 0 18 -6 16 -17z"/>
<path d="M1636 2944 c-4 -10 -1 -14 6 -12 15 5 23 28 10 28 -5 0 -13 -7 -16
-16z"/>
<path d="M1720 2862 c0 -15 70 -102 82 -102 12 0 -6 29 -46 75 -19 22 -35 34
-36 27z"/>
<path d="M1858 2793 c-31 -34 -26 -53 13 -53 27 0 29 2 29 40 0 47 -7 49 -42
13z"/>
<path d="M1388 2762 c-27 -47 -27 -48 -9 -76 l18 -28 32 47 c17 25 31 52 31
59 0 12 -30 46 -41 46 -2 0 -16 -22 -31 -48z"/>
<path d="M1920 2760 c0 -15 7 -20 26 -20 16 0 23 4 18 11 -3 6 0 15 7 20 10 6
4 9 -18 9 -26 0 -33 -4 -33 -20z"/>
<path d="M2045 2770 c3 -5 12 -10 20 -10 7 0 15 -7 19 -15 3 -10 19 -15 42
-15 l37 0 -37 25 c-36 24 -93 35 -81 15z"/>
<path d="M2046 2672 c-18 -40 -18 -40 -49 -27 -17 7 -33 18 -35 24 -2 6 -12 7
-25 2 -12 -4 -28 -6 -34 -4 -7 3 -17 -7 -23 -21 -5 -15 -26 -36 -45 -47 -32
-19 -35 -25 -35 -69 0 -66 14 -75 81 -56 73 22 99 20 133 -9 38 -33 59 -32 89
5 37 43 43 83 18 118 -11 16 -28 50 -39 76 l-18 48 -18 -40z"/>
<path d="M2206 2514 c-10 -27 3 -30 27 -6 l21 22 -21 0 c-11 0 -24 -7 -27 -16z"/>
<path d="M2166 2438 c-23 -32 -20 -50 7 -46 17 2 22 10 24 36 2 37 -10 41 -31
10z"/>
<path d="M1974 2033 c-17 -17 -16 -18 25 -21 50 -4 59 1 41 23 -17 20 -44 19
-66 -2z"/>
<path d="M2974 2033 c-17 -17 -16 -18 25 -21 50 -4 59 1 41 23 -17 20 -44 19
-66 -2z"/>
<path d="M1460 1715 l0 -36 48 3 c45 3 47 4 47 33 0 29 -2 30 -47 33 l-48 3 0
-36z"/>
<path d="M2391 1676 c-31 -37 9 -103 47 -80 36 23 23 94 -18 94 -10 0 -23 -6
-29 -14z"/>
<path d="M2557 1683 c-19 -19 -5 -33 33 -33 41 0 49 7 28 28 -13 13 -50 16
-61 5z"/>
<path d="M3460 1631 c-14 -4 -25 -13 -25 -21 0 -22 47 -25 62 -4 24 33 15 40
-37 25z"/>
<path d="M3611 1676 c-31 -37 9 -103 47 -80 36 23 23 94 -18 94 -10 0 -23 -6
-29 -14z"/>
<path d="M3850 1670 c-10 -19 -8 -20 35 -20 46 0 54 7 33 28 -19 19 -56 14
-68 -8z"/>
</g>
</svg>
